# xmcd
#
# Track frame offsets:
#	150
#	12803
#	25211
#	37428
#	48530
#	61507
#	71662
#	86096
#	94303
#	104643
#	118567
#	132767
#	143576
#	156866
#	169792
#	184587
#	199038
#	212434
#	219984
#	232325
#
# Disc length: 3309 seconds
#
# Revision: 1
# Processed by: cddbd v1.5.2PL0 Copyright (c) Steve Scherf et al.
# Submitted via: audiograbber 1.83.01
#
DISCID=1e0ceb14
DTITLE=Various Artist - Simply Country CD1
DYEAR=1900
DGENRE=
TTITLE0=Johnny Cash - Folsom Prison Blues
TTITLE1=Lynn Anderson - Stand by your man
TTITLE2=Hank Williams - Your cheatin' heart
TTITLE3=Don Williams and The Pozo Seco Singers - Spend some time with me
TTITLE4=Kenny Rogers - Ruby, don't take your love to town
TTITLE5=Patsy Cline - Three cigarettes in an ashtray
TTITLE6=Loretta Lynn - Coal miner's daughter (live)
TTITLE7=Jerry Lee Lewis - Waiting for a train
TTITLE8=Waylon Jennings - Lorena
TTITLE9=Bill Monroe and His Bluegrass Boys - Blue Moon of Kentucky
TTITLE10=Charlie Rich - My Mountain dew
TTITLE11=Loretta Lynn - Crazy (live)
TTITLE12=Kitty Wells - I don't claim to be an angel
TTITLE13=Roy Acuff - Wabash cannonball
TTITLE14=Anne Murray - Both sides now
TTITLE15=Jeannie C. Riley - Harper Valley P.T.A.
TTITLE16=Patti Page - Tennessee Walz
TTITLE17=Brenda Lee - All alone am i
TTITLE18=Bill Monroe and His Bluegrass Boys - Mulesinner Blues
TTITLE19=Jimmie Rodgers - Blue yodel
EXTD=
EXTT0=
EXTT1=
EXTT2=
EXTT3=
EXTT4=
EXTT5=
EXTT6=
EXTT7=
EXTT8=
EXTT9=
EXTT10=
EXTT11=
EXTT12=
EXTT13=
EXTT14=
EXTT15=
EXTT16=
EXTT17=
EXTT18=
EXTT19=
PLAYORDER=
